<?xml version="1.0" encoding="utf-8"?>
<!-- Generator: Adobe Illustrator 26.2.1, SVG Export Plug-In . SVG Version: 6.00 Build 0)  -->
<svg version="1.1" id="Layer_1" xmlns="http://www.w3.org/2000/svg" xmlns:xlink="http://www.w3.org/1999/xlink" x="0px" y="0px"
	 viewBox="0 0 1000 1000" style="enable-background:new 0 0 1000 1000;" xml:space="preserve">
<style type="text/css">
	.st0{fill:#FFFFFF;stroke:#000000;stroke-width:0;stroke-linecap:round;stroke-linejoin:round;}
	.st1{fill:none;stroke:#000000;stroke-width:44;stroke-miterlimit:10;}
	.st2{fill:#231F20;}
</style>
<path class="st0" d="M151.5,155.2v384v384l4.5,9.1c5.6,11.6,16.6,22.6,28.2,28.2l9.1,4.5H500h306.7l9.1-4.5
	c11.6-5.6,22.6-16.6,28.2-28.2l4.5-9.1v-384v-384l-5.1-10.4c-5.5-11.3-15.1-20.9-27.1-27.3c-7.6-4-9.3-4.2-66.4-4.7l-58.6-0.6
	l-5.5-9.6c-6.4-11.5-14-18.2-27.5-24.6c-9.6-4.5-11.3-4.7-51-5.3l-41-0.7l-4.9-6.9c-6.9-9.8-21.5-20.9-33.7-25.5
	c-13.7-5.1-34.8-6.4-47.3-2.7c-5.3,1.5-12.7,4.2-16.6,6.2c-8.6,4.4-24.2,18.2-27.5,24.4l-2.5,4.6l-41.1,0.7
	c-39.9,0.5-41.5,0.7-51.1,5.3c-13.5,6.4-21.1,13.1-27.5,24.6l-5.5,9.6l-58.6,0.6c-57.1,0.5-58.8,0.7-66.4,4.7
	c-12,6.4-21.7,16-27.1,27.3L151.5,155.2z"/>
<g>
	<g transform="translate(0.000000,512.000000) scale(0.100000,-0.100000)">
		<path d="M4811.7,4595.5c-51-14-123.1-40.5-160.1-59.8c-82.7-42.2-234-175.9-265.6-235.7l-24.6-44l-397.5-7.1
			c-385.2-5.2-401-7.1-494.3-51c-130.2-61.6-204-126.6-265.6-237.4l-52.8-93.2l-566.4-5.3c-552.3-5.2-568.2-7.1-642-45.7
			c-116.1-61.6-209.4-154.8-262.1-263.9l-49.3-100.3V-259.5V-3971l43.9-88c54.5-112.6,160.1-218.2,272.7-272.7l88-43.9H5000h2964
			l88,43.9c112.6,54.5,218.2,160.1,272.7,272.7l43.9,88v3711.5v3711.5l-49.3,100.3c-52.8,109.1-146,202.3-262.1,263.9
			c-73.9,38.7-89.7,40.5-642,45.7l-566.4,5.3l-52.8,93.2c-61.6,110.8-135.4,175.9-265.6,237.4c-93.2,43.9-109.1,45.7-492.5,51
			l-395.8,7.1l-47.5,66.9c-66.9,95-207.5,202.3-325.4,246.2C5137.2,4618.4,4933.1,4630.7,4811.7,4595.5z M5174.1,4199.7
			c75.6-37,137.3-109.1,186.4-214.6c51-112.6,86.2-119.6,589.3-119.6h443.3l51-51c47.5-47.5,51-61.6,51-184.7v-133.7H5000H3504.8
			v130.2c0,114.3,5.2,139,42.2,181.2l42.2,49.3l475,8.8l476.7,8.8l52.8,51c29.9,29.9,54.5,61.6,54.5,72.1
			c0,12.3,22.8,54.5,52.8,93.2C4811.7,4243.7,5003.5,4287.7,5174.1,4199.7z M3117.8,3390.5c0-116.1,29.9-193.5,91.5-235.7
			c35.1-24.6,232.2-28.2,1790.7-28.2c1590.2,0,1755.5,1.7,1792.5,28.2c56.2,40.5,89.7,130.2,89.7,244.5v96.7h483.7
			c541.8,0,571.7-5.2,617.4-114.3c21.1-51,24.7-585.7,24.7-3643c0-3224.4-3.5-3586.7-28.2-3639.4c-58-123,163.7-114.3-2979.8-114.3
			s-2921.8-8.8-2979.9,114.3C1995.6-3848,1992-3487.3,1992-263c0,2615.7,5.3,3593.7,19.4,3634.2c12.3,31.7,45.8,72.1,75.6,91.5
			c49.3,29.9,93.2,33.4,543.5,33.4h487.3L3117.8,3390.5L3117.8,3390.5z"/>
	</g>
	<path class="st1" d="M803.6,538C736.2,433.6,625.4,357,500,357c-125.4,0-236.2,76.6-303.6,181c67.4,104.4,178.2,181,303.6,181
		C625.4,718.9,736.2,642.4,803.6,538z"/>
	<path class="st2" d="M546.8,528.7c-28.3,0-51.3-23-51.3-51.3c0-14.5,6-27.6,15.7-36.9c-3.7-0.4-7.4-0.6-11.2-0.6
		c-54.2,0-98.1,43.9-98.1,98.1s43.9,98.1,98.1,98.1s98.1-43.9,98.1-98.1c0-12.5-2.3-24.4-6.6-35.4
		C582.7,518.1,566,528.7,546.8,528.7z"/>
</g>
</svg>
